<?xml version="1.0" encoding="utf-8"?>
<!-- Generator: Adobe Illustrator 16.0.0, SVG Export Plug-In . SVG Version: 6.00 Build 0)  -->
<!DOCTYPE svg PUBLIC "-//W3C//DTD SVG 1.1//EN" "http://www.w3.org/Graphics/SVG/1.1/DTD/svg11.dtd">
<svg version="1.1" id="Layer_1" xmlns="http://www.w3.org/2000/svg" xmlns:xlink="http://www.w3.org/1999/xlink" x="0px" y="0px"
	 width="1440px" height="576px" viewBox="0 0 1440 576" enable-background="new 0 0 1440 576" xml:space="preserve">
<path fill-rule="evenodd" clip-rule="evenodd" d="M1069.672,352.737c4.945,1.274,9.427,2.431,14.756,3.806
	c-2.254,9.174-4.477,18.219-6.725,27.371c-19.628-4.467-38.705-8.807-58.42-13.293c1.853-9.118,3.684-18.134,5.605-27.593
	c5.026,0.989,9.678,1.905,14.855,2.925c-0.539-9.652-1.062-19.045-1.617-28.976c-14.394-2.752-28.537-5.518-42.723-8.051
	c-1.117-0.2-3.168,0.895-3.693,1.937c-3.798,7.541-7.316,15.224-11.185,23.415c5.048,1.038,9.644,1.983,14.719,3.027
	c-1.699,9.304-3.331,18.234-5.045,27.62c-19.714-3.236-39.124-6.422-59.007-9.686c1.316-9.22,2.601-18.208,3.979-27.862
	c3.563,0.516,6.954,0.885,10.292,1.521c3.392,0.646,5.146-0.302,6.76-3.719c23.579-49.887,47.404-99.656,71.037-149.518
	c1.892-3.989,3.892-5.217,8.38-4.054c7.543,1.955,15.292,3.146,22.987,4.471c3.357,0.578,4.992,1.761,5.246,5.647
	c2.057,31.561,4.638,63.088,6.561,94.656c1.458,23.934,2.188,47.914,3.229,71.874
	C1069.721,349.575,1069.672,350.899,1069.672,352.737z M1036.315,287.515c-1.479-19.363-2.896-37.913-4.312-56.464
	c-0.384-0.056-0.768-0.111-1.151-0.166c-8.36,16.812-16.722,33.625-25.228,50.729
	C1016.051,283.619,1025.751,285.484,1036.315,287.515z"/>
<path fill-rule="evenodd" clip-rule="evenodd" d="M1198.801,345.458c1.447-4.588,2.74-8.683,4.241-13.44
	c-9.82-3.113-19.555-6.2-29.933-9.49c-5.445,17.971-10.807,35.67-16.284,53.747c4.839,1.555,9.359,3.008,14.504,4.661
	c-2.81,9.052-5.539,17.839-8.356,26.915c-19.422-5.659-38.452-11.204-57.856-16.858c2.43-9.062,4.779-17.826,7.28-27.149
	c4.95,1.244,9.683,2.434,14.858,3.735c12.671-45.217,25.241-90.078,37.916-135.31c-5.382-1.574-10.437-3.053-16.036-4.69
	c2.426-9.078,4.8-17.962,7.302-27.328c49.6,13.268,98.053,28.779,146.276,46.631c-4.943,13.375-9.752,26.388-14.744,39.894
	c-10.519-3.762-20.752-7.421-31.449-11.246c1.472-4.488,2.85-8.692,4.457-13.598c-20.976-6.819-41.893-13.618-63.348-20.593
	c-5.512,18.221-10.823,35.778-16.303,53.893c10.289,3.244,20.166,6.357,30.409,9.587c1.541-4.387,3.008-8.562,4.679-13.321
	c10.248,3.415,20.259,6.753,31.045,10.348c-6.211,17.931-12.31,35.542-18.586,53.663
	C1218.733,352.119,1209.035,348.878,1198.801,345.458z"/>
<path fill-rule="evenodd" clip-rule="evenodd" d="M463.195,334.267c5.051-0.935,9.594-1.775,14.974-2.771
	c-7.5-46.015-14.993-91.994-22.606-138.702c-5.324,0.785-10.483,1.546-16.41,2.42c-1.632-9.207-3.237-18.258-4.935-27.83
	c49.939-8.801,99.847-15.023,150.814-19.252c1.149,14.166,2.284,28.139,3.445,42.441c-11.132,1.015-21.67,1.976-32.736,2.984
	c-0.59-4.602-1.149-8.957-1.784-13.906c-8.394,0.866-16.469,1.581-24.513,2.557c-12.217,1.483-24.398,3.264-36.625,4.655
	c-3.262,0.371-4.288,1.445-3.804,4.699c2.422,16.283,4.689,32.588,7.04,48.882c0.113,0.782,0.498,1.524,0.873,2.628
	c10.288-1.375,20.446-2.732,30.962-4.137c-0.485-4.574-0.935-8.819-1.48-13.972c10.623-1.207,21.203-2.409,32.218-3.66
	c1.929,19.057,3.797,37.518,5.714,56.463c-10.569,1.188-20.58,2.313-31,3.485c-0.662-4.638-1.263-8.85-1.981-13.88
	c-10.086,1.278-20.033,2.538-30.794,3.901c2.641,18.674,5.231,36.998,7.864,55.626c5.128-0.648,9.862-1.247,15.035-1.9
	c1.243,9.439,2.448,18.587,3.681,27.96c-19.91,3.043-39.238,5.999-59.094,9.034C466.441,352.787,464.873,343.838,463.195,334.267z"
	/>
<path fill-rule="evenodd" clip-rule="evenodd" d="M202.895,224.432c3.046,9.339,5.863,17.977,8.842,27.107
	c-4.94,1.754-9.695,3.442-15.309,5.436c16.024,11.264,31.417,22.082,47.279,33.231c5.146-17.581,10.195-34.833,15.478-52.881
	c-5.452,1.489-10.312,2.815-15.702,4.287c-2.724-8.999-5.391-17.807-8.268-27.313c22.802-6.384,45.103-12.628,67.931-19.02
	c2.462,9.493,4.734,18.255,7.173,27.659c-4.371,1.184-8.562,2.024-12.507,3.516c-1.875,0.709-4.119,2.343-4.775,4.092
	c-9.456,25.182-18.685,50.45-27.898,75.724c-0.481,1.319-0.794,3.006-0.413,4.293c6.459,21.782,13.042,43.529,19.75,65.788
	c5.037-1.375,9.738-2.659,14.742-4.025c2.672,9.137,5.223,17.855,7.887,26.966c-19.173,6.019-38.089,11.955-57.495,18.046
	c-3-8.857-5.905-17.433-9.017-26.623c4.858-1.706,9.458-3.32,14.447-5.072c-5.214-16.068-11.14-31.766-15.294-47.918
	c-3.499-13.606-10.416-23.576-21.92-31.599c-16.371-11.415-31.973-23.942-47.77-36.166c-2.734-2.115-5.046-2.525-8.162-1.164
	c-3.61,1.577-7.417,2.7-11.455,4.133c-3.271-8.83-6.431-17.362-9.92-26.783C161.226,238.938,181.669,231.821,202.895,224.432z"/>
<path fill-rule="evenodd" clip-rule="evenodd" d="M756.837,171.87c0-9.887,0-18.971,0-29.072
	c21.799,0.889,43.153,1.759,65.202,2.658c-0.525,9.647-1.018,18.698-1.529,28.105c-5.312,0-10.373,0-16.006,0
	c10.431,15.983,20.726,31.756,31.327,47.999c11.189-14.591,22.067-28.777,33.426-43.589c-5.699-0.613-10.7-1.151-16.002-1.721
	c0.748-9.538,1.459-18.606,2.231-28.451c23.191,2.353,45.973,4.664,69.64,7.064c-1.142,9.542-2.232,18.657-3.388,28.317
	c-4.83-0.473-9.241-1.139-13.665-1.219c-1.712-0.031-3.986,0.785-5.091,2.027c-17.819,20.046-35.508,40.208-53.154,60.408
	c-1.014,1.16-1.894,2.815-2.024,4.311c-1.971,22.533-3.806,45.078-5.696,67.916c4.877,0.537,9.473,1.044,14.974,1.65
	c-0.788,9.135-1.577,18.283-2.41,27.944c-19.933-1.375-39.452-2.721-59.489-4.103c0.442-9.351,0.871-18.416,1.314-27.783
	c5.112,0,9.852,0,15.045,0c0.398-5.192,0.865-10.44,1.193-15.697c1.06-16.955,2.145-33.909,3.002-50.875
	c0.108-2.146-0.636-4.617-1.736-6.498c-12.854-21.972-25.896-43.835-38.762-65.801c-1.531-2.616-3.233-3.833-6.309-3.648
	C764.986,172.05,761.018,171.87,756.837,171.87z"/>
<path fill-rule="evenodd" clip-rule="evenodd" d="M400.872,173.234c1.907,9.828,3.635,18.735,5.439,28.03
	c-5.591,1.204-10.711,2.307-16.277,3.504c9.42,45.941,18.776,91.569,28.218,137.615c5.159-0.862,9.971-1.667,15.067-2.519
	c1.817,9.418,3.537,18.331,5.312,27.528c-19.602,4.232-38.845,8.388-58.669,12.668c-2.168-9.167-4.286-18.12-6.475-27.374
	c5.125-1.302,9.722-2.469,14.777-3.752c-10.364-45.808-20.642-91.234-31.013-137.072c-5.485,1.168-10.604,2.26-16.326,3.479
	c-2.186-9.271-4.292-18.204-6.549-27.773C356.715,182.753,378.412,178.076,400.872,173.234z"/>
</svg>
